<svg xmlns="http://www.w3.org/2000/svg" viewBox="0 0 304.35 26.14"><defs><style>.cls-1{fill:#fff;}</style></defs><title>Asset 1</title><g id="Layer_2" data-name="Layer 2"><g id="Layer_1-2" data-name="Layer 1"><path class="cls-1" d="M1.62,0a2,2,0,0,1,2,1.32l7.32,14,7.43-14a2,2,0,0,1,2-1.32,1.59,1.59,0,0,1,1.58,1.62V24.09a1.59,1.59,0,0,1-1.58,1.62,1.52,1.52,0,0,1-1.49-1.62V6.6L12.9,17.72c-.49.93-.89,1.62-2,1.62s-1.46-.63-1.92-1.52l-5.87-11V24.09a1.59,1.59,0,0,1-1.58,1.62A1.51,1.51,0,0,1,0,24.09V1.62A1.63,1.63,0,0,1,1.62,0ZM47.41,3.37H37.05v7.85h9.43a1.39,1.39,0,0,1,1.46,1.39,1.47,1.47,0,0,1-1.46,1.45H37.05v8.41H47.47a1.46,1.46,0,1,1,0,2.91h-12a1.63,1.63,0,0,1-1.62-1.62V2.08A1.63,1.63,0,0,1,35.43.46h12a1.46,1.46,0,0,1,1.45,1.45A1.47,1.47,0,0,1,47.41,3.37ZM67,25.71c-1.13,0-1.75-.73-2.15-1.88L57.59,2.54a2.07,2.07,0,0,1-.17-.79,1.77,1.77,0,0,1,3.47-.5l6.2,19.84,6.77-20A1.61,1.61,0,0,1,77,1.62a2.4,2.4,0,0,1-.13.69L69.24,23.79C68.84,24.92,68.41,25.71,67,25.71ZM115.63,8c0,4.62-2.67,8-8.15,8H102.1v8a1.62,1.62,0,0,1-3.24,0v-22A1.63,1.63,0,0,1,100.48.46h6.87C113,.46,115.63,3.93,115.63,8ZM107,3.37H102.1V13.2h5.21c4,0,5-2.44,5-4.88C112.3,5,110.55,3.37,107,3.37Zm35.4,4.15c0,3.21-1.45,5.58-4.36,6.6l4.43,9.05a2.16,2.16,0,0,1,.29.92A1.61,1.61,0,0,1,141,25.67a1.41,1.41,0,0,1-1.41-.82l-4.72-10.13h-6v9.34a1.62,1.62,0,0,1-3.23,0v-22A1.62,1.62,0,0,1,127.2.46h6.87C139.74.46,142.35,3.2,142.35,7.52Zm-8.68-4.15h-4.85v8.51H134c4,0,5-1.78,5-4.26C139,4.29,137.24,3.37,133.67,3.37Zm18.52,11.18v-3C152.19,4,156.05,0,162.15,0s10,4,10,11.52v3c0,7.49-3.89,11.32-10,11.32S152.19,22,152.19,14.55Zm3.33-3.26v3.49c0,5.71,2.34,8.19,6.63,8.19s6.7-2.48,6.7-8.19V11.29c0-5.71-2.7-8.39-6.7-8.39S155.52,5.58,155.52,11.29Zm41.75-7.82h-6.5V24.06a1.62,1.62,0,0,1-3.23,0V3.47h-6.83A1.5,1.5,0,0,1,179.26,2,1.53,1.53,0,0,1,180.71.46h16.56A1.53,1.53,0,0,1,198.73,2,1.5,1.5,0,0,1,197.27,3.47Zm8.62,11.08v-3C205.89,4,209.75,0,215.86,0s10,4,10,11.52v3c0,7.49-3.9,11.32-10,11.32S205.89,22,205.89,14.55Zm3.33-3.26v3.49c0,5.71,2.35,8.19,6.64,8.19s6.69-2.48,6.69-8.19V11.29c0-5.71-2.7-8.39-6.69-8.39S209.22,5.58,209.22,11.29ZM246.2,23a10.38,10.38,0,0,0,4.32-.79,3.38,3.38,0,0,1,.93-.2,1.35,1.35,0,0,1,1.45,1.38,1.54,1.54,0,0,1-.76,1.23c-1.32.92-4.06,1.28-5.94,1.28-6.1,0-10.62-3.83-10.62-11.32v-3C235.58,4,240.1,0,246.2,0a13.19,13.19,0,0,1,5.55,1.12,1.8,1.8,0,0,1,1.12,1.45A1.52,1.52,0,0,1,251.22,4c-.86,0-1.55-1.13-5-1.13-4,0-7.29,2.68-7.29,8.39v3.49C238.91,20.49,241.91,23,246.2,23Zm44.49.79V1.62a1.62,1.62,0,1,1,3.23,0V22.47h9a1.46,1.46,0,0,1,0,2.91H292.31A1.63,1.63,0,0,1,290.69,23.76Z"/><path class="cls-1" d="M261,14.82v-3c0-7.49,3.86-11.52,10-11.52s10,4,10,11.52v3c0,7.49-3.89,11.32-10,11.32S261,22.31,261,14.82Zm3.33-3.27v3.5c0,5.71,2.34,8.18,6.63,8.18s6.7-2.47,6.7-8.18v-3.5c0-5.71-2.7-8.38-6.7-8.38S264.31,5.84,264.31,11.55Z"/></g></g></svg>